<svg enable-background="new 0 0 128 128" viewBox="0 0 128 128" xmlns="http://www.w3.org/2000/svg" xmlns:xlink="http://www.w3.org/1999/xlink"><linearGradient id="a" gradientTransform="matrix(-1 0 0 -1 128.01 128)" gradientUnits="userSpaceOnUse" x1="55.628" x2="55.628" y1="9.0072" y2="122.6"><stop offset="0" stop-color="#d1d1d1"/><stop offset=".0677" stop-color="#dadada"/><stop offset=".2145" stop-color="#e5e5e5"/><stop offset=".4211" stop-color="#ececec"/><stop offset=".9949" stop-color="#eee"/></linearGradient><path d="m106.76 8.14-4.05-4.14-4.05 4.14-4.04-4.14-4.05 4.14-4.04-4.14-4.05 4.14-4.05-4.14-4.05 4.14-4.04-4.14-4.05 4.14-4.05-4.14-4.04 4.14-4.05-4.14-4.05 4.14-4.05-4.14-4.05 4.14-4.04-4.14-4.05 4.14-4.05-3.11.11 118.85 72.66.12c13.96 0 11.99-30.34 12.26-35.18l.02-84.82z" fill="url(#a)"/><path d="m78.43 8.29 1.9 1.95c.56.58 1.34.9 2.15.9s1.58-.33 2.15-.9l1.9-1.95 1.9 1.95c.56.58 1.34.9 2.15.9s1.58-.33 2.15-.9l1.9-1.95 1.9 1.95c.56.58 1.34.9 2.15.9s1.58-.33 2.15-.9l1.9-1.95 1.9 1.95c.58.59 1.36.9 2.15.9.46 0 .93-.11 1.36-.33l3.79-1.93-.01 79.85c-.03.67-.03 1.61-.03 2.89 0 4.28.01 12.26-1.45 18.91-1.52 6.94-4.14 10.46-7.78 10.46l-69.67-.11-.1-109.93c.34.12.69.19 1.04.19.78 0 1.56-.31 2.15-.9l1.9-1.95 1.9 1.95c.56.58 1.34.9 2.15.9s1.58-.33 2.15-.9l1.9-1.95 1.9 1.95c.56.58 1.34.9 2.15.9s1.58-.33 2.15-.9l1.9-1.95 1.9 1.95c.56.58 1.34.9 2.15.9s1.58-.33 2.15-.9l1.9-1.95 1.9 1.95c.56.58 1.34.9 2.15.9s1.58-.33 2.15-.9l1.9-1.95 1.9 1.95c.56.58 1.34.9 2.15.9s1.58-.33 2.15-.9l1.85-1.95m36.48-4.29-8.15 4.14-4.05-4.14-4.05 4.14-4.04-4.14-4.05 4.14-4.04-4.14-4.05 4.14-4.05-4.14-4.05 4.14-4.04-4.14-4.05 4.14-4.05-4.14-4.04 4.14-4.05-4.14-4.05 4.14-4.05-4.14-4.05 4.14-4.04-4.14-4.05 4.14-4.05-3.11.11 118.85 72.66.12c13.96 0 11.99-30.34 12.26-35.18l.02-84.82z" fill="#424242" opacity=".2"/><path d="m102.97 23.98h-65.04" fill="none" stroke="#8c8c8c" stroke-miterlimit="10" stroke-width="2.1258"/><g fill="#757575"><g><path d="m83.71 37.68h6.64v2.33h-6.64z"/><path d="m65.13 37.68h16.11v2.33h-16.11z"/><path d="m92.83 37.68h10.14v2.33h-10.14z"/></g><path d="m37.93 37.68h11.7v2.33h-11.7z"/><g><path d="m97.9 45.51h5.07v2.13h-5.07z"/><path d="m65.13 45.51h23.87v2.13h-23.87z"/></g><path d="m37.93 45.51h7.43v2.13h-7.43z"/><g><path d="m65.26 52.3h26.79v2.51h-26.79z"/><path d="m95.54 52.3h7.43v2.51h-7.43z"/></g><path d="m37.93 53.11h12.72v1.64h-12.72z"/><g><path d="m65.13 59.96h38.19v2.28h-38.19z"/><path d="m37.93 59.96h7.43v2.28h-7.43z"/></g><g><path d="m90.81 67.96h12.16v2.27h-12.16z"/><path d="m78.98 67.96h4.49v2.27h-4.49z"/><path d="m65.13 67.96h6.88v2.27h-6.88z"/></g><path d="m37.93 67.96h11.36v2.27h-11.36z"/><g><path d="m98.35 76.12h4.62v2.09h-4.62z"/><path d="m90.07 76.12h5.8v2.09h-5.8z"/><path d="m65.13 76.12h17.61v2.09h-17.61z"/></g><path d="m37.93 76.12h8.98v2.09h-8.98z"/><g><path d="m65.13 84.09h10.19v2.54h-10.19z"/><path d="m81.99 84.09h7.01v2.54h-7.01z"/><path d="m95.67 84.09h7.3v2.54h-7.3z"/></g><path d="m37.93 84.09h7.43v2.54h-7.43z"/></g><path d="m83.66 104.48v-4.03c0-1.89.31-3.71.85-5.44h-70.57c-.54 1.73-.85 3.55-.85 5.44v4.03c0 10.7 9.36 19.45 20.8 19.45h66.2c.74 0 1.47-.04 2.18-.11-10.42-1.03-18.61-9.34-18.61-19.34z" fill="#9eacb4"/><path d="m80.8 98c-.1.81-.15 1.63-.15 2.44v4.03c0 6.47 2.89 12.34 7.58 16.45h-54.34c-9.82 0-17.8-7.38-17.8-16.45v-4.03c0-.81.07-1.63.21-2.44zm3.71-3h-70.57c-.54 1.73-.85 3.55-.85 5.44v4.03c0 10.7 9.36 19.45 20.8 19.45h66.2c.74 0 1.47-.04 2.18-.11-10.42-1.03-18.62-9.33-18.62-19.34v-4.03c.01-1.88.31-3.7.86-5.44z" fill="#424242" opacity=".2"/><path d="m133.5 165.5c1.93 0 1.93-3 0-3s-1.93 3 0 3z" fill="#424242"/></svg>